<?xml version="1.0" encoding="UTF-8" standalone="no"?>
<!-- Created with Inkscape (http://www.inkscape.org/) -->

<svg
   width="210.00011mm"
   height="210.00011mm"
   viewBox="0 0 210.00011 210.00011"
   version="1.1"
   id="svg1"
   inkscape:version="1.3.1 (91b66b0, 2023-11-16)"
   sodipodi:docname="circle.svg"
   xmlns:inkscape="http://www.inkscape.org/namespaces/inkscape"
   xmlns:sodipodi="http://sodipodi.sourceforge.net/DTD/sodipodi-0.dtd"
   xmlns="http://www.w3.org/2000/svg"
   xmlns:svg="http://www.w3.org/2000/svg">
  <sodipodi:namedview
     id="namedview1"
     pagecolor="#ffffff"
     bordercolor="#000000"
     borderopacity="0.25"
     inkscape:showpageshadow="2"
     inkscape:pageopacity="0.0"
     inkscape:pagecheckerboard="0"
     inkscape:deskcolor="#d1d1d1"
     inkscape:document-units="mm"
     inkscape:zoom="0.71660308"
     inkscape:cx="357.93873"
     inkscape:cy="415.85085"
     inkscape:window-width="1440"
     inkscape:window-height="847"
     inkscape:window-x="0"
     inkscape:window-y="25"
     inkscape:window-maximized="0"
     inkscape:current-layer="layer1" />
  <defs
     id="defs1" />
  <g
     inkscape:label="Layer 1"
     inkscape:groupmode="layer"
     id="layer1">
    <path
       id="path1"
       style="fill:#392ece;stroke-width:0.264583;fill-opacity:1"
       d="M 104.99979,0 A 105,105 0 0 0 0,104.99979 105,105 0 0 0 104.99979,210.0001 105,105 0 0 0 210.0001,104.99979 105,105 0 0 0 104.99979,0 Z m -0.52865,10.36991 a 94.631454,94.631454 0 0 1 95.1575,93.92502 l 0.003,0.70486 A 94.631454,94.631454 0 0 1 105.17601,199.63123 94.631454,94.631454 0 0 1 10.369393,105.35274 94.631454,94.631454 0 0 1 104.47114,10.36991 Z" />
  </g>
</svg>